<svg id="Layer_2" xmlns="http://www.w3.org/2000/svg" viewBox="0 0 583.26 181.34"><style>.st0{fill:#ee8615}</style><path d="M0 144.07h3.83l6.61 29.87 6.93-29.92h3.25l6.93 29.92 6.61-29.87h3.78l-8.66 36.95h-3.41l-6.93-29.45-6.93 29.45h-3.4L0 144.07zm43.35-.52h3.83v4.41h-3.83v-4.41zm.15 9.71h3.52v27.56H43.5v-27.56zm11.13-9.92h3.52v37.48h-3.52v-37.48zm9.76 24.19v-1c0-9.24 4.09-13.75 8.61-13.75 3.62 0 5.77 2.52 7.14 5.41v-14.86h3.57v37.48h-3.57v-5.04c-1.36 2.94-3.57 5.51-7.14 5.51-4.47.01-8.61-4.4-8.61-13.75zm15.9-.05v-.94c0-6.61-3.04-10.55-6.51-10.55-3.26 0-5.83 3.67-5.83 10.65v.74c0 6.98 2.62 10.71 5.83 10.71 3.47-.01 6.51-3.99 6.51-10.61zm10.7-24.14h3.52v37.48h-3.52v-37.48zm10.97.21h3.83v4.41h-3.83v-4.41zm.16 9.71h3.52v27.56h-3.52v-27.56zm11.96 3.09h-2.89v-3.1h2.89v-2.68c0-2.57.68-4.46 1.89-5.72 1.1-1.1 2.68-1.68 4.67-1.68.94 0 1.89.16 2.62.37v3.2c-.68-.21-1.52-.37-2.15-.37-2.26 0-3.52 1.42-3.52 4.46v2.42h5.51v3.1h-5.51v24.46h-3.52v-24.46zm11.81 11.13v-.52c0-8.92 4.2-14.17 9.39-14.17 5.57 0 9.03 5.35 9.03 13.91v1.84H129.4c.26 6.25 3.46 9.61 7.3 9.61 2.15 0 3.83-1 5.41-2.42l1.68 2.68c-2.16 1.89-4.47 2.94-7.4 2.94-5.83-.01-10.5-4.95-10.5-13.87zm14.96-1.78c-.11-5.56-2.15-9.76-5.57-9.76-3.15 0-5.62 3.57-5.93 9.76h11.5zm19.57-2.94v-.58c0-11.86 5.88-18.48 13.28-18.48 3.31 0 5.72 1.26 7.66 3.04l-2.05 2.89c-1.58-1.42-3.47-2.47-5.72-2.47-5.25 0-9.45 5.77-9.45 15.07v.37c0 9.55 4.2 15.12 9.4 15.12 2.26 0 4.25-1.1 5.98-2.73l1.99 2.83c-2.15 1.99-4.88 3.36-8.19 3.36-7.39 0-12.9-6.45-12.9-18.42zm24.61 4.56v-.58c0-8.29 4.25-13.96 9.97-13.96 5.72 0 9.87 5.62 9.87 13.96v.58c0 8.35-4.2 14.02-9.92 14.02s-9.92-5.62-9.92-14.02zm16.28-.05v-.42c0-6.46-2.78-10.86-6.35-10.86-3.62 0-6.35 4.36-6.35 10.86v.42c0 6.46 2.78 10.86 6.4 10.86 3.57.01 6.3-4.4 6.3-10.86zm9.44-14.01h3.52v4.15c1.21-2.47 3.26-4.62 6.72-4.62 4.41 0 7.3 3.15 7.3 8.92v19.11h-3.52v-18c0-4.67-1.84-6.88-4.99-6.88-3.15 0-5.51 2.73-5.51 6.93v17.95h-3.52v-27.56zm21.57 24.35l1.99-2.73c2.1 2.15 4.25 3.2 6.4 3.2 2.68 0 4.51-1.78 4.51-4.2v-.1c0-1.99-1.21-3.46-5.09-5.67-4.46-2.52-6.46-4.57-6.46-8.08v-.11c0-4.2 3.25-7.03 7.72-7.03 2.89 0 5.41 1.21 7.3 2.83l-1.89 2.73c-1.57-1.47-3.36-2.42-5.51-2.42-2.52 0-4.2 1.58-4.2 3.62v.1c0 1.99 1.31 3.31 5.04 5.46 4.88 2.83 6.51 4.99 6.51 8.4v.05c0 4.62-3.57 7.56-7.98 7.56-2.73.01-5.62-1.09-8.34-3.61zm20.56-10.13v-.52c0-8.92 4.2-14.17 9.4-14.17 5.56 0 9.03 5.35 9.03 13.91v1.84H256.4c.26 6.25 3.46 9.61 7.29 9.61 2.15 0 3.83-1 5.41-2.42l1.68 2.68c-2.15 1.89-4.46 2.94-7.4 2.94-5.82-.01-10.5-4.95-10.5-13.87zm14.96-1.78c-.1-5.56-2.15-9.76-5.56-9.76-3.15 0-5.62 3.57-5.93 9.76h11.49zm9.24-12.44h3.52v4.88c1.26-3.1 3.78-5.41 7.51-5.2v3.88h-.16c-4.15 0-7.35 2.78-7.35 8.45v15.54h-3.52v-27.55zm14.16 0h3.67l6.09 22.41 6.19-22.41h3.57l-8.14 27.71h-3.25l-8.13-27.71zm22.31 19.58v-.37c0-5.46 3.26-8.82 8.4-8.82 2.26 0 3.99.47 5.62 1.05v-2.36c0-3.99-2.15-6.14-5.77-6.14-2.2 0-4.36.89-5.62 1.73l-1.15-2.99c2.1-1.15 4.51-1.99 7.19-1.99 2.68 0 4.88.79 6.46 2.36 1.47 1.42 2.36 3.83 2.36 6.82v18.69h-3.52v-3.83c-1.31 2.62-3.46 4.36-6.67 4.36-4-.01-7.3-3.37-7.3-8.51zm14.01-.9v-4.41c-1.47-.63-3.15-1.05-5.04-1.05-3.52 0-5.46 2.36-5.46 5.88v.26c0 3.41 1.84 5.72 4.67 5.72 3.37.06 5.83-2.88 5.83-6.4zm10.86 3.42v-19h-2.78v-3.1h2.78v-7.77h3.57v7.77h5.46v3.1h-5.46v18.32c0 2.47 1.21 3.25 3.15 3.25.79 0 1.63-.21 2.36-.53v3.04c-.89.42-2.05.68-3.2.68-3.36.01-5.88-1.51-5.88-5.76zm14.85-31.81h3.83v4.41h-3.83v-4.41zm.16 9.71h3.52v27.56h-3.52v-27.56zm9.65 14.06v-.58c0-8.29 4.25-13.96 9.97-13.96 5.72 0 9.87 5.62 9.87 13.96v.58c0 8.35-4.2 14.02-9.92 14.02s-9.92-5.62-9.92-14.02zm16.28-.05v-.42c0-6.46-2.78-10.86-6.35-10.86-3.62 0-6.35 4.36-6.35 10.86v.42c0 6.46 2.78 10.86 6.4 10.86 3.57.01 6.3-4.4 6.3-10.86zm9.44-14.01h3.52v4.15c1.21-2.47 3.25-4.62 6.72-4.62 4.41 0 7.3 3.15 7.3 8.92v19.11h-3.52v-18c0-4.67-1.84-6.88-4.99-6.88-3.15 0-5.51 2.73-5.51 6.93v17.95h-3.52v-27.56zm35.79-9.19h3.57l14.75 28.29v-28.29h3.57v36.74h-3.2l-15.12-29.03v29.03h-3.57v-36.74zm28.18 23.41v-.52c0-8.92 4.2-14.17 9.4-14.17 5.56 0 9.03 5.35 9.03 13.91v1.84h-14.91c.26 6.25 3.47 9.61 7.3 9.61 2.15 0 3.83-1 5.41-2.42l1.68 2.68c-2.15 1.89-4.46 2.94-7.4 2.94-5.84-.01-10.51-4.95-10.51-13.87zm14.95-1.78c-.1-5.56-2.15-9.76-5.56-9.76-3.15 0-5.62 3.57-5.93 9.76h11.49zm9.97 9.66v-19h-2.78v-3.1h2.78v-7.77h3.57v7.77h5.46v3.1h-5.46v18.32c0 2.47 1.21 3.25 3.15 3.25.79 0 1.63-.21 2.36-.53v3.04c-.89.42-2.05.68-3.2.68-3.36.01-5.88-1.51-5.88-5.76zm12.86-22.1h3.67l4.78 21.73 5.04-21.73h3.04l4.99 21.73 4.88-21.73h3.52l-6.67 27.71h-3.31l-4.99-21.21-4.99 21.21h-3.25l-6.71-27.71zm33.21 14.06v-.58c0-8.29 4.25-13.96 9.97-13.96 5.72 0 9.87 5.62 9.87 13.96v.58c0 8.35-4.2 14.02-9.92 14.02s-9.92-5.62-9.92-14.02zm16.28-.05v-.42c0-6.46-2.78-10.86-6.35-10.86-3.62 0-6.35 4.36-6.35 10.86v.42c0 6.46 2.78 10.86 6.4 10.86 3.57.01 6.3-4.4 6.3-10.86zm9.44-14.01H553v4.88c1.26-3.1 3.78-5.41 7.51-5.2v3.88h-.16c-4.15 0-7.35 2.78-7.35 8.45v15.54h-3.52v-27.55zm15.95-9.92h3.52v24.35l9.29-14.43h3.99l-7.56 11.34 7.93 16.22h-4.04l-6.3-13.07-3.31 4.93v8.14h-3.52v-37.48z" id="wcn"/><path id="rule_00000064331813890223673410000011886302440948686215_" class="st0" d="M1.35 123.31h581.76v1.97H1.35z"/><path d="M258.12 75.35l-28.92-40.1h15.19l20.29 29.23 20.6-29.23h14.67l-28.92 39.82v26.39h-12.9V75.35zm49.42-40.1h54v10.4h-41.2v17.22h36.52v10.4h-36.52v17.78h41.72v10.4h-54.52v-66.2zm94.47-.48h11.86l32.05 66.68h-13.53L425 85.46h-34.44l-7.49 15.99h-13.11l32.05-66.68zm18.32 40.39l-12.59-26.48-12.49 26.48h25.08zm37.14-39.91h32.46c9.16 0 16.34 2.46 21.02 6.62 3.85 3.59 6.03 8.51 6.03 14.28v.19c0 10.88-7.18 17.4-17.27 20.05l19.66 25.07h-15.19l-17.9-23.08h-16.02v23.08h-12.8V35.25zm31.52 32.82c9.16 0 14.98-4.35 14.98-11.07v-.19c0-7.09-5.62-10.97-15.09-10.97h-18.62v22.23h18.73zm37.88 23.74l7.7-8.32c6.97 5.49 14.05 8.61 22.99 8.61 7.91 0 12.9-3.41 12.9-8.32v-.19c0-4.73-2.91-7.28-16.44-10.12-15.5-3.4-24.24-7.57-24.24-19.77v-.2c0-11.35 10.4-19.2 24.87-19.2 10.61 0 19.04 2.93 26.43 8.32l-6.87 8.8c-6.55-4.45-13.11-6.81-19.77-6.81-7.49 0-11.86 3.5-11.86 7.85v.19c0 5.11 3.33 7.38 17.38 10.4 15.4 3.41 23.31 8.42 23.31 19.39v.19c0 12.39-10.72 19.77-26.01 19.77-11.14 0-21.65-3.5-30.39-10.59z" id="years"/><g id="_x32_0"><path d="M6.81 28.86l1.19-.5c2.05-.92 3.88-1.6 5.47-2.04 1.59-.44 3.29-.66 5.09-.66 3.94 0 7.14 1.05 9.59 3.14 2.45 2.1 3.68 4.86 3.68 8.3 0 2.56-.65 4.82-1.95 6.79-1.3 1.97-3.13 3.52-5.5 4.65-2.37 1.13-4.96 1.7-7.76 1.7-4.44 0-8.13-1.38-11.06-4.15-2.93-2.77-4.4-6.22-4.4-10.37 0-3.48 1.06-6.82 3.17-10.03 2.12-3.21 5.1-5.96 8.96-8.27 2.22-1.38 4.79-2.54 7.7-3.46 2.91-.92 6.08-1.6 9.49-2.04 3.42-.44 6.99-.66 10.72-.66 3.69 0 7.56.28 11.63.85 4.06.57 7.81 1.36 11.22 2.39 3.42 1.03 6.28 2.21 8.58 3.55 2.6 1.47 4.81 3.15 6.63 5.06 1.82 1.91 3.21 4 4.15 6.29.94 2.28 1.41 4.6 1.41 6.95 0 4.86-1.76 8.99-5.28 12.38a23.367 23.367 0 0 1-5.22 3.93c-1.93 1.07-4.45 2.11-7.58 3.11-3.12 1.01-6.78 1.99-10.97 2.95-4.82 1.17-7.92 1.95-9.3 2.33-5.74 1.72-10.68 3.41-14.8 5.06-4.13 1.66-7.58 3.35-10.34 5.09-2.77 1.74-5.41 3.8-7.92 6.19-3.77 3.56-6.35 7.48-7.73 11.76l.25.25c2.72-3.23 5.29-5.78 7.7-7.67 2.41-1.89 5.29-3.58 8.64-5.09 6.54-3.1 13.16-4.65 19.87-4.65 3.6 0 7.01.45 10.22 1.35 3.21.9 7.14 2.48 11.79 4.75 2.01.96 3.76 1.74 5.25 2.33 1.49.59 2.8 1.01 3.93 1.26s2.22.38 3.27.38c3.31 0 5.75-1.08 7.32-3.24 1.57-2.16 2.44-5.58 2.61-10.28h2.2c-.25 5.07-.83 9.11-1.73 12.1-.9 3-2.38 5.92-4.43 8.77-1.8 2.47-4.05 4.64-6.73 6.51a30.87 30.87 0 0 1-8.8 4.24c-3.19.96-6.48 1.45-9.87 1.45-3.86 0-7.63-.61-11.32-1.82-3.69-1.22-8.19-3.4-13.52-6.54-3.56-2.14-6.54-3.66-8.93-4.56-2.39-.9-4.61-1.35-6.66-1.35-2.56 0-4.79.55-6.7 1.63-1.91 1.09-3.44 2.69-4.59 4.81-1.15 2.12-1.85 4.68-2.11 7.7H1.02c.13-3.02.42-5.63.88-7.83s1.11-4.26 1.95-6.19c.84-1.93 1.97-3.94 3.39-6.04 2.6-3.86 5.86-7.2 9.78-10.03 3.92-2.83 9.44-5.79 16.57-8.9 5.07-2.14 8.84-3.97 11.32-5.5 2.47-1.53 4.5-3.22 6.1-5.06 1.68-1.93 2.85-3.96 3.52-6.1.67-2.14 1.01-4.82 1.01-8.05 0-7.8-1.76-13.71-5.28-17.76-3.52-4.04-8.72-6.07-15.59-6.07-4.11 0-8.06.57-11.85 1.7-3.79 1.13-6.97 2.7-9.52 4.72-1.68 1.26-2.95 2.45-3.83 3.58-.9 1.14-1.78 2.78-2.66 4.91zm138.4-3.26c1.46-.75 3.47-.41 4.46.91 1.06 1.58 2.16 3.16 3.58 4.53 1.43 1.54 2.75 3.37 2.8 5.42-.41 2.31-.18 4.87-1.83 6.82-1.37 1.75-4.69 2.65-6.56.87-2.06-2.8-4.55-5.62-4.89-9.05-.02-1.39-.5-2.74-.47-4.12-.23-2.11 1.06-4.17 2.91-5.38m-18.61 6.8c1.46-1.1 3.35-1.34 5.12-1.19 3.27 1.15 4.54 4.73 6.03 7.54 1.22 2.96 2.74 6.05 2.32 9.35-.12 1.53-1.25 2.78-2.54 3.48-1.06.32-2.21.14-3.26-.08-1.51-.43-2.67-1.55-3.92-2.43-1.22-.86-2.41-1.82-3.25-3.07-1.64-3.15-2.3-6.73-2.19-10.26.22-1.21.73-2.52 1.69-3.34m-6.08 20.07c1.77-.86 3.56.49 5.22 1.03 2.61 1.22 5.51 2.35 7.28 4.75.96 1.75 1.48 3.75 1.63 5.75-.25 1.12-1.31 1.79-2.04 2.59-1.32.97-2.91 2-4.62 1.68-2.2-.34-3.76-2.06-5.26-3.55-1.18-1.14-1.61-2.77-2.5-4.09-.91-1.77-2.08-3.62-1.9-5.68.21-1.15 1.18-1.97 2.19-2.48m45.32-14.73c1.1-.84 2.54-.34 3.65.22 2.52 1.75 4.54 4.69 4.15 7.88-.25 2.22.1 4.85-1.62 6.59-.87 1.05-2.41 1.12-3.63.79-2.35-.48-5.08-.52-6.77-2.45-.83-.58-.61-1.65-.68-2.51 0-3.97 1.65-8.14 4.9-10.52m-21.37 16.22c2.65-2.16 6.56-3.04 9.85-1.57 1.97.62 3.41 2.28 5.23 3.23 3.16 1.74 6.23 3.64 9.17 5.77 1.7 1.33 3.47 3.05 3.55 5.41-.78 3.3-4.03 5.09-7.11 5.06-2.39-.04-4.44 1.48-6.83 1.42-2.76.19-6 .31-7.73 2.84-1.12 1.98-2.4 3.9-4.18 5.28-1.72 1.04-3.84 1.97-5.85 1.01-2.27-1.1-3.06-3.86-3.73-6.15-.87-3.94 1.05-7.59 2.36-11.03.61-2.68 1.73-5.15 2.67-7.7.57-1.41 1.53-2.57 2.6-3.57"/><path class="st0" d="M127.53 16.37c-.85.79-1.67 1.58-2.44 2.42 16.17-11.63 41.44-7.19 55.89 7.72 13.53 13.96 19.9 43.68 6.55 58.29.92-.67 1.85-1.36 2.69-2.15 15.92-14.97 15.35-43.82-.86-60.95-16.25-17.18-45.96-20.31-61.83-5.33"/><path d="M123.99 89.71c1.1.37 2.19.72 3.29.99-17.94-8.66-26.1-32.98-19.89-52.8 5.81-18.55 28.89-38.34 48.1-33.58-1.03-.49-2.07-.98-3.17-1.35-20.76-6.84-45.83 7.42-53.14 29.85-7.35 22.49 4.07 50.1 24.81 56.89" fill="#006fb1"/><path d="M190.19 57.2c-.22-1.14-.44-2.26-.74-3.36 1.17 19.89-16.11 38.85-36.44 43.07-19.03 3.96-47.55-6.58-52.74-25.67.07 1.14.15 2.29.37 3.43 4.12 21.46 28.79 36.42 51.94 31.89 23.22-4.52 41.77-27.94 37.61-49.36" fill="#7bab2d"/></g></svg>